<?xml version="1.0" encoding="utf-8"?>
<!-- Generator: Adobe Illustrator 25.3.0, SVG Export Plug-In . SVG Version: 6.00 Build 0)  -->
<svg version="1.1" id="Layer_1" xmlns="http://www.w3.org/2000/svg" xmlns:xlink="http://www.w3.org/1999/xlink" x="0px" y="0px"
	 viewBox="0 0 141.84 198.48" style="enable-background:new 0 0 141.84 198.48;" xml:space="preserve">
<style type="text/css">
	.st0{clip-path:url(#SVGID_2_);}
	.st1{fill:#F9BFBE;}
	.st2{fill:#B8E4FA;}
	.st3{fill:url(#SVGID_3_);}
	.st4{fill:url(#SVGID_4_);}
	.st5{fill:#94B5DE;}
	.st6{fill:url(#SVGID_5_);}
	.st7{fill:url(#SVGID_6_);}
</style>
<g>
	<defs>
		<rect id="SVGID_1_" x="-177" y="9.36" width="141.84" height="189.12"/>
	</defs>
	<clipPath id="SVGID_2_">
		<use xlink:href="#SVGID_1_"  style="overflow:visible;"/>
	</clipPath>
	<g class="st0">
		<path class="st1" d="M-132.28,134.95h-71.17c-7.19,0-11.86,7.56-8.65,13.99l71.17,142.33c4.56,9.13,18.32,5.88,18.32-4.32V144.62
			C-122.61,139.28-126.94,134.95-132.28,134.95z"/>
		<path class="st2" d="M-59.27,61.36h20.79c2.1,0,3.47-2.21,2.53-4.09L-56.75,15.7c-1.33-2.67-5.35-1.72-5.35,1.26v41.57
			C-62.1,60.1-60.83,61.36-59.27,61.36z"/>
		<g>
			
				<linearGradient id="SVGID_3_" gradientUnits="userSpaceOnUse" x1="-77.3397" y1="191.2557" x2="-77.3397" y2="79.7583" gradientTransform="matrix(1 0 0 1 1.5784 -4.5234)">
				<stop  offset="0" style="stop-color:#E1F3FC"/>
				<stop  offset="0.5" style="stop-color:#B8E4FA"/>
				<stop  offset="1" style="stop-color:#8FCDF0"/>
			</linearGradient>
			<path class="st3" d="M-50.74,75.23H-85.9v19.92c0,2.99-2.42,5.41-5.41,5.41h-14.86v80.97c0,5.46,7.37,7.2,9.81,2.32l50.43-100.85
				C-44.14,79.44-46.74,75.23-50.74,75.23z"/>
			
				<linearGradient id="SVGID_4_" gradientUnits="userSpaceOnUse" x1="-5643.5693" y1="-5319.9297" x2="-5643.5693" y2="-5228.7173" gradientTransform="matrix(-1 0 0 -1 -5754.8066 -5219.3574)">
				<stop  offset="0" style="stop-color:#F48E91"/>
				<stop  offset="0.5" style="stop-color:#F9BFBE"/>
				<stop  offset="1" style="stop-color:#FCE7E5"/>
			</linearGradient>
			<path class="st4" d="M-100.79,75.24h14.9V14.8c0-5.74-7.71-7.56-10.26-2.42L-136,92.7c-1.8,3.62,0.83,7.87,4.86,7.87h24.98V80.63
				C-106.17,77.65-103.76,75.24-100.79,75.24z"/>
			<path class="st5" d="M-85.9,95.16V75.23l-14.9,0c-2.97,0-5.37,2.41-5.37,5.37v19.96h14.86C-88.32,100.57-85.9,98.15-85.9,95.16z"
				/>
		</g>
	</g>
</g>
<g>
	
		<linearGradient id="SVGID_5_" gradientUnits="userSpaceOnUse" x1="84.5476" y1="192.4497" x2="84.5476" y2="80.9523" gradientTransform="matrix(1 0 0 1 1.5784 -4.5234)">
		<stop  offset="0" style="stop-color:#E1F3FC"/>
		<stop  offset="0.5" style="stop-color:#B8E4FA"/>
		<stop  offset="1" style="stop-color:#8FCDF0"/>
	</linearGradient>
	<path class="st6" d="M111.15,76.43H75.99v19.92c0,2.99-2.42,5.41-5.41,5.41H55.72v80.97c0,5.46,7.37,7.2,9.81,2.32L115.96,84.2
		C117.74,80.63,115.15,76.43,111.15,76.43z"/>
	
		<linearGradient id="SVGID_6_" gradientUnits="userSpaceOnUse" x1="-5805.457" y1="-5321.1235" x2="-5805.457" y2="-5229.9111" gradientTransform="matrix(-1 0 0 -1 -5754.8066 -5219.3574)">
		<stop  offset="0" style="stop-color:#F48E91"/>
		<stop  offset="0.5" style="stop-color:#F9BFBE"/>
		<stop  offset="1" style="stop-color:#FCE7E5"/>
	</linearGradient>
	<path class="st7" d="M61.09,76.43h14.9V15.99c0-5.74-7.71-7.56-10.26-2.42L25.89,93.89c-1.8,3.62,0.83,7.87,4.86,7.87h24.98V81.82
		C55.72,78.84,58.13,76.43,61.09,76.43z"/>
	<path class="st5" d="M75.99,96.35V76.43l-14.9,0c-2.97,0-5.37,2.41-5.37,5.37v19.96h14.86C73.57,101.77,75.99,99.34,75.99,96.35z"
		/>
</g>
</svg>
